<svg xmlns="http://www.w3.org/2000/svg" xmlns:xlink="http://www.w3.org/1999/xlink" viewBox="0,0,256,256" width="64px" height="64px"><g fill="none" fill-rule="nonzero" stroke="none" stroke-width="1" stroke-linecap="butt" stroke-linejoin="miter" stroke-miterlimit="10" stroke-dasharray="" stroke-dashoffset="0" font-family="none" font-weight="none" font-size="none" text-anchor="none" style="mix-blend-mode: normal"><g transform="scale(2,2)"><path d="M104,114h-80c-5.5,0 -10,-4.5 -10,-10v-60c0,-5.5 4.5,-10 10,-10h80c5.5,0 10,4.5 10,10v60c0,5.5 -4.5,10 -10,10z" fill="#dbe5ec"></path><path d="M37,109c0,2.8 2.2,5 5,5h61.7c5.5,0 10,-4.5 10,-10v0h-71.7c-2.8,0 -5,2.2 -5,5z" fill="#253744"></path><path d="M104,117h-80c-7.2,0 -13,-5.8 -13,-13v-28c0,-1.7 1.3,-3 3,-3c1.7,0 3,1.3 3,3v28c0,3.9 3.1,7 7,7h80c3.9,0 7,-3.1 7,-7v-28c0,-1.7 1.3,-3 3,-3c1.7,0 3,1.3 3,3v28c0,7.2 -5.8,13 -13,13z" fill="#444b54"></path><path d="M64,77.9c-17.8,0 -35.6,-4.8 -51.5,-14.3c-0.9,-0.6 -1.5,-1.5 -1.5,-2.6v-17c0,-7.2 5.8,-13 13,-13h80c7.2,0 13,5.8 13,13v17c0,1.1 -0.6,2 -1.5,2.6c-15.9,9.5 -33.7,14.3 -51.5,14.3zM17,59.3c29.1,16.8 64.9,16.8 94,0v-15.3c0,-3.9 -3.1,-7 -7,-7h-80c-3.9,0 -7,3.1 -7,7zM82,27c-1.7,0 -3,-1.3 -3,-3c0,-3.9 -3.1,-7 -7,-7h-16c-3.9,0 -7,3.1 -7,7c0,1.7 -1.3,3 -3,3c-1.7,0 -3,-1.3 -3,-3c0,-7.2 5.8,-13 13,-13h16c7.2,0 13,5.8 13,13c0,1.7 -1.3,3 -3,3z" fill="#444b54"></path></g></g></svg>